<svg width="40" height="41" viewBox="0 0 40 41" fill="none" xmlns="http://www.w3.org/2000/svg">
<path d="M0 20.5C0 9.45431 8.95431 0.5 20 0.5C31.0457 0.5 40 9.45431 40 20.5C40 31.5457 31.0457 40.5 20 40.5C8.95431 40.5 0 31.5457 0 20.5Z" fill="#F1F4F3"/>
<path d="M23.9648 16.02V26.02C23.9648 28.23 22.1748 30.02 19.9648 30.02C17.7548 30.02 15.9648 28.23 15.9648 26.02V16.02C15.9648 13.81 17.7548 12.02 19.9648 12.02C21.0748 12.02 22.0748 12.47 22.7948 13.19C23.5148 13.91 23.9648 14.91 23.9648 16.02Z" stroke="#1C3F3A" stroke-width="2" stroke-linecap="round" stroke-linejoin="round"/>
<path d="M23.9648 16.02V19.4C22.7548 19.79 21.3948 20 19.9648 20C18.5348 20 17.1748 19.79 15.9648 19.4V16.02C15.9648 13.81 17.7548 12.02 19.9648 12.02C21.0748 12.02 22.0748 12.47 22.7948 13.19C23.5148 13.91 23.9648 14.91 23.9648 16.02Z" stroke="#1C3F3A" stroke-width="2" stroke-linecap="round" stroke-linejoin="round"/>
<line x1="19.9648" y1="20" x2="19.9648" y2="30.02" stroke="#1C3F3A" stroke-width="2"/>
<path d="M23.9648 17.26L26.2248 14.95L29.0348 13.66" stroke="#1C3F3A" stroke-width="2" stroke-linecap="round" stroke-linejoin="round"/>
<path d="M23.9648 19.23L25.8748 20.29L28.3448 23.71" stroke="#1C3F3A" stroke-width="2" stroke-linecap="round" stroke-linejoin="round"/>
<path d="M23.9648 25.88L25.6148 27.23L27.5648 30.91" stroke="#1C3F3A" stroke-width="2" stroke-linecap="round" stroke-linejoin="round"/>
<line x1="22.348" y1="11.3064" x2="22.7411" y2="10.9367" stroke="#1C3F3A" stroke-width="2" stroke-linecap="round" stroke-linejoin="round"/>
<path d="M15.8648 17.26L13.6848 14.95L10.9648 13.66" stroke="#1C3F3A" stroke-width="2" stroke-linecap="round" stroke-linejoin="round"/>
<path d="M15.865 19.23L14.015 20.29L11.625 23.71" stroke="#1C3F3A" stroke-width="2" stroke-linecap="round" stroke-linejoin="round"/>
<path d="M15.865 25.88L14.275 27.23L12.375 30.91" stroke="#1C3F3A" stroke-width="2" stroke-linecap="round" stroke-linejoin="round"/>
<path d="M16.0508 12.736L15.701 12.3941" stroke="#1C3F3A" stroke-width="2" stroke-linecap="round" stroke-linejoin="round"/>
</svg>
