<svg xmlns="http://www.w3.org/2000/svg" id="Layer_1" viewBox="0 0 20.07 21.04"><defs><style>.cls-1,.cls-2{fill:none;stroke-width:2px}.cls-1{stroke:#070909;stroke-miterlimit:10}.cls-2{stroke:#010101;stroke-linecap:round;stroke-linejoin:round}</style></defs><path d="m14,6.04v10c0,2.21-1.79,4-4,4s-4-1.79-4-4V6.04c0-2.21,1.79-4,4-4,1.11,0,2.11.45,2.83,1.17s1.17,1.72,1.17,2.83Z" class="cls-2"/><path d="m14,6.04v3.38c-1.21.39-2.57.6-4,.6s-2.79-.21-4-.6v-3.38c0-2.21,1.79-4,4-4,1.11,0,2.11.45,2.83,1.17s1.17,1.72,1.17,2.83Z" class="cls-2"/><line x1="10" x2="10" y1="10.02" y2="20.04" class="cls-1"/><polyline points="14 7.28 16.26 4.97 19.07 3.68" class="cls-2"/><polyline points="14 10.25 15.91 11.31 18.38 14.73" class="cls-2"/><polyline points="14 14.9 15.65 16.25 17.6 19.93" class="cls-2"/><line x1="12.34" x2="14.19" y1="2.74" y2="1" class="cls-2"/><polyline points="5.9 7.28 3.72 4.97 1 3.68" class="cls-2"/><polyline points="5.9 10.25 4.05 11.31 1.66 14.73" class="cls-2"/><polyline points="5.9 14.9 4.31 16.25 2.41 19.93" class="cls-2"/><line x1="7.5" x2="5.72" y1="2.74" y2="1" class="cls-2"/></svg>