<svg version="1.2" xmlns="http://www.w3.org/2000/svg" viewBox="0 0 434 434" width="434" height="434">
	<title>people-svg</title>
	<defs>
		<linearGradient id="g1" x1="216.8" y1="420.5" x2="216.8" y2="13" gradientUnits="userSpaceOnUse">
			<stop offset="0" stop-color="#f2f2f2"/>
			<stop offset="1" stop-color="#ffffff"/>
		</linearGradient>
	</defs>
	<style>
		.s0 { fill: #879459 } 
		.s1 { fill: url(#g1);stroke: #879459;stroke-width: 10 } 
		.s2 { fill: #ffffff } 
	</style>
	<path id="Shape 1" class="s0" d="m228.5 313c-78.8 0-142.5-63.7-142.5-142.5 0-78.8 63.7-142.5 142.5-142.5 78.8 0 142.5 63.7 142.5 142.5 0 78.8-63.7 142.5-142.5 142.5z"/>
	<g id="Layer">
		<path id="Layer" fill-rule="evenodd" class="s1" d="m375.6 171.8c0 50.6-44.2 119.9-70.6 156.7-17.1 23.9-35.7 46.8-52.5 64.4-26.1 27.6-33.3 27.6-35.7 27.6-2.5 0-10.1 0-36.3-27.6-16.7-17.5-35.3-40.4-52.4-64.4-26.2-36.7-70.1-105.9-70.1-156.7 0-87.5 71.2-158.8 158.8-158.8 87.5 0 158.8 71.3 158.8 158.8zm-52.4-0.1c0-58.9-47.6-106.4-106.4-106.4-58.9 0-106.4 47.5-106.4 106.4 0 58.8 47.5 106.4 106.4 106.4 58.8 0 106.4-47.6 106.4-106.4z"/>
		<g id="Layer">
			<path id="Layer" class="s2" d="m247.1 167l18.7 34.6-10.5-0.2 0.4-12.2-28.2 25.6 26.2 28.5 0.5-12.9h17.7l18.2-29.8 5-8.3-22-39.4zm14.2-55.9l-11.3 6.3-9.2-15.2h-43.7l-0.4 0.6c0 0.1-1.5 2.2-3.3 5.4l-19.5 33.3 25.6 14.9 19.8-34 5.4 9.1-10.7 6 36.6 10.8zm-86.9 83.2l10.5 6.3-8.8-37.1-37.7 9.2 11.1 6.7-8.5 15.5 17.3 30.4 4.8 7.8 45.2 0.3 0.2-29.6-39.3-0.3z"/>
		</g>
	</g>
</svg>