<svg xmlns="http://www.w3.org/2000/svg" version="1.2" viewBox="0 0 434 434">
  <defs>
    <linearGradient id="a" x1="216.8" x2="216.8" y1="420.5" y2="13" gradientUnits="userSpaceOnUse">
      <stop offset="0" stop-color="#f2f2f2"/>
      <stop offset="1" stop-color="#fff"/>
    </linearGradient>
  </defs>
  <path fill="#879459" d="M228.5 313C149.7 313 86 249.3 86 170.5S149.7 28 228.5 28 371 91.7 371 170.5 307.3 313 228.5 313z"/>
  <path fill="url(#a)" fill-rule="evenodd" stroke="#879459" stroke-width="10" d="M375.6 171.8c0 50.6-44.2 119.9-70.6 156.7-17.1 23.9-35.7 46.8-52.5 64.4-26.1 27.6-33.3 27.6-35.7 27.6-2.5 0-10.1 0-36.3-27.6-16.7-17.5-35.3-40.4-52.4-64.4C101.9 291.8 58 222.6 58 171.8 58 84.3 129.2 13 216.8 13c87.5 0 158.8 71.3 158.8 158.8zm-52.4-.1c0-58.9-47.6-106.4-106.4-106.4-58.9 0-106.4 47.5-106.4 106.4 0 58.8 47.5 106.4 106.4 106.4 58.8 0 106.4-47.6 106.4-106.4z"/>
  <path fill="#fff" d="m247.1 167 18.7 34.6-10.5-.2.4-12.2-28.2 25.6 26.2 28.5.5-12.9h17.7l18.2-29.8 5-8.3-22-39.4zm14.2-55.9-11.3 6.3-9.2-15.2h-43.7l-.4.6c0 .1-1.5 2.2-3.3 5.4l-19.5 33.3 25.6 14.9 19.8-34 5.4 9.1-10.7 6 36.6 10.8zm-86.9 83.2 10.5 6.3-8.8-37.1-37.7 9.2 11.1 6.7-8.5 15.5 17.3 30.4 4.8 7.8 45.2.3.2-29.6-39.3-.3z"/>
</svg>
