<svg xmlns="http://www.w3.org/2000/svg" xml:space="preserve" id="_x32_" width="800" height="800" version="1.1" viewBox="0 0 512 512">
  <path d="M346.483 226.653C288.307 150.888 255.985 44.84 255.985 44.84s-32.318 106.048-90.505 181.813c0 0 26.66 16.09 41.21 7.569 0 0-14.55 65.341-79.995 151.514 58.176 18.923 101.81-12.328 101.81-12.328v93.75h54.962v-93.75s43.642 31.25 101.817 12.328c-65.457-86.174-79.995-151.514-79.995-151.514 14.537 8.521 41.194-7.569 41.194-7.569z" class="st0"/>
  <path d="M160.886 307.087c-19.185-35.761-24.363-59.015-24.363-59.015 8.768 5.141 23.33-1.454 29.058-4.376 1.522-.84 2.417-1.379 2.417-1.379-5.313-6.985-10.353-14.276-15.186-21.718-34.855-54.482-53.972-117.26-53.972-117.26S74.129 184.38 29.61 242.316c0 0 20.361 12.283 31.542 5.756 0 0-11.181 49.956-61.151 115.88 44.451 14.426 77.788-9.443 77.788-9.443v71.674h42.034v-71.674s3.035 2.151 8.415 4.759c13.395-18.877 24.094-36.451 32.648-52.181zM450.849 248.071c11.121 6.527 31.474-5.756 31.474-5.756-44.454-57.936-69.155-138.977-69.155-138.977s-19.125 62.778-54.05 117.26c-4.766 7.441-9.803 14.733-15.123 21.718 0 0 .906.54 2.428 1.379 5.725 2.922 20.29 9.517 29.058 4.376 0 0-5.178 23.328-24.442 59.09 8.566 15.655 19.331 33.303 32.723 52.106 5.381-2.608 8.423-4.759 8.423-4.759v71.674h41.967v-71.674s33.394 23.869 77.848 9.443c-50.03-65.924-61.151-115.88-61.151-115.88z" class="st0"/>
</svg>
