<svg xmlns="http://www.w3.org/2000/svg" width="40" height="41" fill="none" viewBox="0 0 40 41"><path fill="#F1F4F3" d="M0 20.5C0 9.45431 8.95431 0.5 20 0.5C31.0457 0.5 40 9.45431 40 20.5C40 31.5457 31.0457 40.5 20 40.5C8.95431 40.5 0 31.5457 0 20.5Z"/><path stroke="#1C3F3A" stroke-linecap="round" stroke-linejoin="round" stroke-width="2" d="M18.3202 18V18.2C19.6736 18.7205 20.461 20.1344 20.1908 21.5591C19.9206 22.9837 18.6702 24.0112 17.2202 24H13.3202C11.8886 23.9644 10.6817 22.9219 10.4384 21.5106C10.1951 20.0994 10.9831 18.713 12.3202 18.2L12.3202 18C12.3202 16.3431 13.6633 15 15.3202 15C16.977 15 18.3202 16.3431 18.3202 18Z"/><path stroke="#1C3F3A" stroke-linecap="round" stroke-linejoin="round" stroke-width="2" d="M15.3203 24V30"/><path stroke="#1C3F3A" stroke-linecap="round" stroke-linejoin="round" stroke-width="2" d="M21.3203 27V30"/><path stroke="#1C3F3A" stroke-linecap="round" stroke-linejoin="round" stroke-width="2" d="M20.3199 27H28.6199C29.02 26.9944 29.3782 26.7508 29.5306 26.3808C29.6829 26.0109 29.6 25.5857 29.3199 25.3L26.3199 22H26.6199C27.02 21.9944 27.3782 21.7508 27.5306 21.3808C27.6829 21.0109 27.6 20.5857 27.3199 20.3L24.3199 17H24.5199C24.9383 17.0377 25.3357 16.81 25.5146 16.4298C25.6935 16.0497 25.6157 15.5983 25.3199 15.3L21.3199 11L19.9199 12.5"/></svg>