<svg id="Layer_2" data-name="Layer 2" xmlns="http://www.w3.org/2000/svg" width="18" height="18" viewBox="0 0 18 18">
  <g id="Color">
    <path id="_10.Linkedin" data-name="10.Linkedin" d="M9,0a9,9,0,1,0,9,9A9,9,0,0,0,9,0ZM6.383,13.737H4.419V7.412H6.383ZM5.4,6.549A1.143,1.143,0,1,1,6.538,5.4,1.143,1.143,0,0,1,5.4,6.549Zm8.337,7.188H11.775V10.658c0-.734-.014-1.676-1.021-1.676S9.57,9.78,9.57,10.6v3.132H7.614V7.412H9.5v.862h.027a2.062,2.062,0,0,1,1.858-1.022c1.987,0,2.353,1.31,2.353,3.01Z" fill="#396154"/>
  </g>
</svg>
