<svg width="32" height="44" viewBox="0 0 32 44" fill="none" xmlns="http://www.w3.org/2000/svg">
<path d="M32 16C32 26.5593 21.1733 38.6932 17.3319 42.666C16.5931 43.4301 15.4069 43.4301 14.6681 42.666C10.8267 38.6932 0 26.5593 0 16C0 7.16344 7.16344 0 16 0C24.8366 0 32 7.16344 32 16Z" fill="#2A6354"/>
<path fill-rule="evenodd" clip-rule="evenodd" d="M15.4221 7.49985L15.2923 7.49968C14.7338 7.49857 14.2017 7.49751 13.7253 7.68489C13.3098 7.84828 12.9421 8.11337 12.6557 8.45583C12.3272 8.84856 12.16 9.35366 11.9844 9.88387L11.9459 9.99985H9.33337C8.78109 9.99985 8.33337 10.4476 8.33337 10.9999C8.33337 11.5521 8.78109 11.9999 9.33337 11.9999H10L10 19.54C10 20.2059 10 20.7654 10.0374 21.2233C10.0765 21.702 10.1615 22.157 10.3815 22.5888C10.7171 23.2474 11.2525 23.7828 11.9111 24.1184C12.3429 24.3384 12.7979 24.4234 13.2766 24.4625C13.7345 24.4999 14.294 24.4999 14.9598 24.4999H17.0402C17.7061 24.4999 18.2656 24.4999 18.7235 24.4625C19.2022 24.4234 19.6572 24.3384 20.089 24.1184C20.7476 23.7828 21.283 23.2474 21.6186 22.5888C21.8386 22.157 21.9235 21.702 21.9627 21.2233C22.0001 20.7654 22.0001 20.2059 22 19.54V11.9999H22.6667C23.219 11.9999 23.6667 11.5521 23.6667 10.9999C23.6667 10.4476 23.219 9.99985 22.6667 9.99985H20.0541L20.0157 9.88387C19.8401 9.35366 19.6728 8.84856 19.3444 8.45583C19.058 8.11337 18.6902 7.84828 18.2748 7.68489C17.7984 7.49751 17.2663 7.49857 16.7078 7.49968L16.578 7.49985H15.4221ZM14.0633 9.99985H17.9368C17.9368 9.74967 17.84 9.60759 17.8102 9.572C17.7386 9.48639 17.6466 9.42012 17.5428 9.37927C17.4679 9.34981 17.3545 9.33301 16.578 9.33301H15.4221C14.6456 9.33301 14.5322 9.34981 14.4573 9.37927C14.3534 9.42012 14.2615 9.48639 14.1899 9.572C14.1601 9.60759 14.0633 9.74967 14.0633 9.99985ZM14.3334 13.3333C14.8857 13.3333 15.1669 13.781 15.1669 14.3333V20.1666C15.1669 20.7189 14.8857 21.1666 14.3334 21.1666C13.7811 21.1666 13.5002 20.7189 13.5002 20.1666V14.3333C13.5002 13.781 13.7811 13.3333 14.3334 13.3333ZM17.6667 13.3333C18.219 13.3333 18.5002 13.781 18.5002 14.3333V20.1666C18.5002 20.7189 18.219 21.1666 17.6667 21.1666C17.1144 21.1666 16.8335 20.7189 16.8335 20.1666V14.3333C16.8335 13.781 17.1144 13.3333 17.6667 13.3333Z" fill="white"/>
</svg>
