<svg xmlns="http://www.w3.org/2000/svg" xml:space="preserve" width="800" height="800" viewBox="0 0 99.776 99.777">
  <path d="M78.104 15.759H21.673c-3.703 0-6.708.421-6.708 3.424l4.019 75.166c0 2.997 3.001 5.428 6.704 5.428h47.053c3.706 0 6.704-2.431 6.704-5.428l5.359-75.166c.008-3.003-2.993-3.424-6.7-3.424zM67.749 58.341l2.686 6.354c0 .346-.283.64-.633.64h-6.051c-.352 0-1.026-.314-1.3-.64l-1.649-3.378c-.298-.52.027-.722.499-.924l5.441-2.519c.78-.392 1.007.467 1.007.467zM47.955 38.433c.674-.382 7.187-1.624 7.665-1.893.476-.281.678.091.678.091.896 1.581 3.97 6.935 5.182 9.062.396.688.65 1.136.65 1.136s1.648-.942 2.683-1.538c1.026-.585.698.633.698.633s-2.307 9.043-2.563 10.005c-.188.695-.894.441-.894.441l-9.974-2.56s-1.21-.294-.361-.773c.853-.496 2.905-1.667 2.905-1.667l-.722-1.27a10408.21 10408.21 0 0 1-6.252-10.911c.004.003-.368-.372.305-.756zm-2.438 35.499c.027.876-.852.712-.852.712l-6.893-.28a.634.634 0 0 1-.297-.849l2.578-5.473c.147-.314.715-.787 1.125-.903l3.754-.051c.603-.059.645.338.626.842l-.041 6.002zm-.379-11.841c-.886-.41-3.025-1.431-3.025-1.431s-.252.524-.623 1.314c-1.08 2.289-4.57 9.685-5.369 11.383 0 0-.094.51-.792.181-.703-.332-5.452-4.966-5.946-5.194-.501-.229-.305-.616-.305-.616.773-1.643 3.412-7.225 4.454-9.435.335-.712.556-1.188.556-1.188s-1.716-.812-2.799-1.318c-1.073-.506.123-.931.123-.931s8.731-3.285 9.671-3.627c.676-.24.876.479.876.479l3.614 9.637s.451 1.16-.435.746zm1.556-12.055-4.892-3.474c-.739-.482-.094-1.104-.094-1.104l4.17-5.484a.642.642 0 0 1 .866.231l3.003 5.256c.178.305.245 1.037.098 1.444l-2.103 3.105c-.305.515-.65.337-1.048.026zm21.883 24.82c0 .548-.432.541-.432.541H56.406v3.087c0 1.194-.89.287-.89.287s-6.707-6.491-7.412-7.193c-.512-.506.06-.999.06-.999l7.182-7.378s.849-.903.849.075v3.347h14.038s.506-.13.506.64c-.003.77-2.162 7.035-2.162 7.593zM19.269 13.362h61.238a4.306 4.306 0 0 0 0-8.61H64.412A4.749 4.749 0 0 0 59.665 0H40.116a4.75 4.75 0 0 0-4.751 4.751H19.272a4.306 4.306 0 0 0-4.303 4.307 4.3 4.3 0 0 0 4.3 4.304z"/>
</svg>
