<svg width="40" height="41" viewBox="0 0 40 41" fill="none" xmlns="http://www.w3.org/2000/svg">
<path d="M0 20.5C0 9.45431 8.95431 0.5 20 0.5C31.0457 0.5 40 9.45431 40 20.5C40 31.5457 31.0457 40.5 20 40.5C8.95431 40.5 0 31.5457 0 20.5Z" fill="#F1F4F3"/>
<path d="M11 14.5H29" stroke="#1C3F3A" stroke-width="2" stroke-linecap="round" stroke-linejoin="round"/>
<path d="M27 14.5V28.5C27 29.5 26 30.5 25 30.5H15C14 30.5 13 29.5 13 28.5V14.5" stroke="#1C3F3A" stroke-width="2" stroke-linecap="round" stroke-linejoin="round"/>
<path d="M16 14.5V12.5C16 11.5 17 10.5 18 10.5H22C23 10.5 24 11.5 24 12.5V14.5" stroke="#1C3F3A" stroke-width="2" stroke-linecap="round" stroke-linejoin="round"/>
<line x1="19" y1="20.5" x2="19" y2="24.5" stroke="#1C3F3A" stroke-width="2" stroke-linecap="round" stroke-linejoin="round"/>
<line x1="23" y1="20.5" x2="23" y2="24.5" stroke="#1C3F3A" stroke-width="2" stroke-linecap="round" stroke-linejoin="round"/>
</svg>
