<svg xmlns="http://www.w3.org/2000/svg" xmlns:xlink="http://www.w3.org/1999/xlink" viewBox="0 0 268.65 41.8"><g fill="#fff"><path d="M46.48 2.12c0-.8.2-1 1-1h9.31c.8 0 1 .2 1 1v.2c0 .8-.2 1-1 1h-3.46v11.27c0 .83-.2 1.03-1.03 1.03h-.31c-.83 0-1.03-.2-1.03-1.03V3.33h-3.48c-.8 0-1-.2-1-1v-.2zM61.1 12.79c.2.87.49 1.07 1.12 1.07s.92-.18 1.12-1.07l1.74-7.26c.18-.78.42-.98 1.23-.98h.33c.8 0 .96.2.76.98l-1.79 7.37c-.27 1.09-.62 1.88-1.05 2.3-.42.42-1.21.65-2.34.65s-1.92-.2-2.34-.62-.78-1.21-1.05-2.32l-1.79-7.37c-.2-.78-.04-.98.76-.98h.33c.8 0 1.05.2 1.23.98l1.74 7.26z"/><use xlink:href="#B"/><path d="M82.46 14.62c0 .8-.2 1-1 1h-.29c-.8 0-1-.2-1-1V8.26c0-2.63 1.41-3.95 4.22-3.95l.45.02c.74.09.94.27.94 1.05v.31c0 .74-.16.89-.94.78-.11-.02-.27-.02-.45-.02-1.5 0-1.92.6-1.92 1.96v6.21zM87.61 1c0-.8.2-1 1-1h.27c.8 0 1 .2 1 1v13.62c0 .8-.2 1-1 1h-.27c-.8 0-1-.2-1-1V1zm5.98 4.49c.65-.74 1.07-.94 2.08-.94h.38c1 0 1.07.16.42.94l-3.1 3.48c-.29.29-.45.56-.45.8 0 .2.13.47.42.78l3.57 4.13c.65.78.58.94-.42.94h-.38c-1 0-1.43-.2-2.08-.94l-2.5-2.92c-.6-.69-.89-1.36-.89-2.05s.18-1.12.89-1.9l2.05-2.32z"/><use x="29.8" xlink:href="#B"/><path d="M112.19 11.52c0 1.52.58 2.19 2.57 2.19s2.54-.67 2.54-2.19V5.56c0-.8.2-1 1-1h.29c.8 0 1 .2 1 1v5.96c0 2.88-1.45 4.35-4.84 4.35s-4.87-1.45-4.87-4.35V5.56c0-.8.2-1 1-1h.29c.8 0 1 .2 1 1v5.96zM50.48 23.87c0-.83.2-1.03 1.03-1.03h.29c.83 0 1.03.2 1.03 1.03V34.3c0 .56.29.85.87.85h4.75c.8 0 1 .2 1 1v.2c0 .8-.2 1-1 1h-5.42c-1.79 0-2.54-.76-2.54-2.54V23.87zm11.12-1.99c.56-.56 1.45-.56 1.99 0 .56.54.56 1.43 0 1.99s-1.43.54-1.99 0c-.56-.56-.56-1.45 0-1.99zm-.16 5.4c0-.8.2-1 1-1h.29c.8 0 1 .2 1 1v9.06c0 .8-.2 1-1 1h-.29c-.8 0-1-.2-1-1v-9.06zm14.38 4.36c-.09.83-.31 1.03-1.14 1.03h-6.21v.49c0 1.63.94 2.28 3.19 2.28.92 0 1.88-.11 2.9-.36.71-.18.92 0 .92.78v.29c0 .74-.13.89-.92 1.09-.89.25-1.85.36-2.9.36-3.75 0-5.49-1.41-5.49-4.78v-1.94c0-3.24 1.65-4.84 4.96-4.84 3.1 0 4.73 1.58 4.73 4.62l-.04.98zm-7.34-.85h5.22v-.56c0-1.47-.87-2.21-2.63-2.21s-2.59.74-2.59 2.21v.56zm8.67-3.37c0-.62.16-.8.76-.92l1.18-.22.27-2.1c.09-.65.27-.8.92-.8h.29c.65 0 .8.16.8.8v2.1h3.12c.74 0 .94.16.94.94v.27c0 .78-.2.94-.94.94h-3.12v5.07c0 1.29.58 1.94 1.74 1.94.67 0 1.27-.07 1.81-.2.74-.16.92 0 .92.78v.27c0 .74-.18.96-.92 1.12-.6.11-1.21.18-1.81.18-2.68 0-4.02-1.36-4.02-4.11v-5.05h-1.16c-.62 0-.78-.16-.78-.78v-.22zm12.57 5.83c0 1.52.58 2.19 2.57 2.19s2.54-.67 2.54-2.19v-5.96c0-.8.2-1 1-1h.29c.8 0 1 .2 1 1v5.96c0 2.88-1.45 4.35-4.84 4.35s-4.87-1.45-4.87-4.35v-5.96c0-.8.2-1 1-1h.29c.8 0 1 .2 1 1v5.96zm13.55 1.27c.2.87.49 1.07 1.12 1.07s.92-.18 1.12-1.07l1.74-7.26c.18-.78.42-.98 1.23-.98h.33c.8 0 .96.2.76.98l-1.79 7.37c-.27 1.09-.62 1.88-1.05 2.3s-1.21.65-2.34.65-1.92-.2-2.34-.62-.78-1.21-1.05-2.32l-1.79-7.37c-.2-.78-.04-.98.76-.98h.33c.8 0 1.05.2 1.23.98l1.74 7.26zm16.87-.49c0 1.63-.71 2.7-2.12 3.21-.56.2-1.05.51-1.47.98s-.65.89-.65 1.27c0 .6.22.78.78.78.11 0 .22 0 .33-.02.51-.07.62.07.62.54v.22c0 .47-.11.62-.62.71-.27.04-.51.07-.76.07-1.52 0-2.19-.54-2.19-1.99 0-1.09.54-1.65 1.61-2.21h-.29c-3.01 0-4.53-1.14-4.53-3.44s1.61-3.37 4.55-3.37h2.46v-1.09c0-1.32-.87-1.7-2.63-1.7-.89 0-1.67.07-2.34.2-.65.11-.83-.02-.83-.71v-.31c0-.65.18-.85.8-.96.69-.11 1.43-.18 2.23-.18 3.24 0 5.04 1 5.04 3.66v4.33zm-2.28-1.5h-2.46c-1.54 0-2.25.45-2.25 1.58s.85 1.54 2.19 1.54c1.67 0 2.52-.33 2.52-1.74v-1.38z"/></g><path fill="#f1bd36" d="M16.73 4.84c-.47-.25-1.07-.42-1.85-.5-3.02-.31-2.83 1.65-4.6 2.24-1.74.62-3.36-2.8-4.97-3.42-.67-.25-1.44-.3-2.14-.08l13.57 13.57V4.84zm.4 14.17H1.17c1.54 1.15 4.15 1.06 4.97 1.04 1.21-.06 2.8-.06 2.8 1.18s-.4 1.03-2.15 1.8c-1.1.48-1.78 2.19-1.02 3.77h19.16l-7.8-7.8zM1.93 3.81c-.47.46-.83 1.12-1.02 2-.59 2.67 3.11 3.7 2.43 5.88-.69 2.17-3.08.59-3.33 4.6-.04.52.02.96.15 1.34h15.59L1.93 3.81zM26.3 28.18H6.89c.53.42 1.22.79 2.11 1.07 2.36.75 4.26.62 5.69.44 1.43-.19 2.36-.47 2.77-.09.84.72.09 1.31 0 3.73-.09 2.39 1.8 2.52 3.76 2.52l12.92.17-7.83-7.83zm2.89-9.63c-.22-.08-.35-.23-.45-.33-1.28-1.24-.23-3.35-.9-5.44-.13-.39-.32-.78-.56-1.15v15.59l7.88 7.88-.17-13.12c0-1.96-.12-3.86-2.52-3.76-1.91.07-2.67.56-3.28.33zm-5.15-9.2c-2.05-.06-3.11 1.37-4.32 1.77-1.18.4-.96-1.77-1.21-3.26-.09-.5-.19-1.03-.41-1.53v11.71l7.8 7.8V10.13c-.6-.45-1.25-.75-1.86-.77z"/><path fill="none" stroke="#fff" stroke-miterlimit="10" stroke-width=".5" d="M131.46 2.53v36.73" opacity=".4"/><g fill="#fff" opacity=".48"><use xlink:href="#C"/><use xlink:href="#D"/><path d="M196.96 14.89v-.53l.47-.09v-3.18l-.47-.09v-.54h1.84V11l-.48.09v3.13h1.25l.04-.56h.68v1.24h-3.34zm3.78-3.9v-.54h1.84v.54l-.47.09v3.18l.47.09v.53h-1.84v-.53l.48-.09v-3.18l-.48-.09zm6.83-.54v.54l-.48.09v3.81h-.89l-1.79-2.99h-.02v2.36l.48.09v.53h-1.84v-.53l.47-.09v-3.18l-.47-.09v-.54h1.36l1.79 2.99h.02v-2.36l-.48-.09v-.54h1.84zm.41 3.9l.47-.09v-3.18l-.47-.09v-.54h1.81v.54l-.45.09v1.19h.39l.85-1.24-.26-.04v-.54h1.76v.54l-.48.08-1.09 1.46 1.23 1.75.44.08v.53h-1.76v-.53l.27-.04-.85-1.28h-.5v1.23l.45.09v.53h-1.81v-.53z"/><use xlink:href="#E"/><use xlink:href="#F"/><use x="34.14" xlink:href="#C"/><use x="34.14" xlink:href="#D"/><use x="14.33" xlink:href="#F"/><use x="46.82" xlink:href="#C"/><path d="M241.22 10.45v.54l-.48.09v2.32c0 .29.08.51.24.66.16.14.37.22.65.22s.5-.07.66-.22c.16-.14.24-.36.24-.66v-2.32l-.47-.09v-.54h1.84v.54l-.48.09v2.32c0 .5-.16.88-.49 1.15s-.76.41-1.29.41-.96-.13-1.28-.41c-.33-.27-.49-.65-.49-1.15v-2.32l-.47-.09v-.54h1.84zm6.73 3.94c-.14.14-.35.27-.63.38s-.63.17-1.05.17c-.6 0-1.09-.2-1.46-.6-.38-.4-.56-.92-.56-1.56v-.15c0-.66.19-1.2.56-1.62s.85-.62 1.45-.62a2.63 2.63 0 0 1 .95.17c.29.11.53.26.72.45v.89h-.66l-.13-.59c-.08-.07-.19-.12-.32-.17-.13-.04-.29-.06-.46-.06-.39 0-.69.14-.9.43-.22.29-.32.66-.32 1.12v.16c0 .45.11.81.32 1.08s.52.4.91.4c.18 0 .32-.02.43-.05a.92.92 0 0 0 .26-.11v-.75l-.63-.05v-.62h1.53v1.7z"/><use x="36.29" xlink:href="#E"/><use x="36.29" xlink:href="#F"/><path d="M190.19 18.2c.54 0 .99.17 1.34.52a1.8 1.8 0 0 1 .53 1.33v.73c0 .54-.18.99-.53 1.33s-.8.52-1.34.52h-2v-.53l.47-.09v-3.18l-.47-.09v-.54h2zm-.63.69v3.07h.59c.32 0 .57-.11.75-.32s.27-.5.27-.84v-.74c0-.34-.09-.62-.27-.84s-.43-.32-.75-.32h-.59z"/><use xlink:href="#G"/><use xlink:href="#H"/><use xlink:href="#I"/><use xlink:href="#J"/><use xlink:href="#K"/><use x="12.64" xlink:href="#I"/><use xlink:href="#L"/><use x="30.8" xlink:href="#G"/><path d="m232.06,18.2v.54l-.48.09v3.81h-.89l-1.79-2.99h-.02v2.36l.48.09v.53h-1.84v-.53l.47-.09v-3.18l-.47-.09v-.54h1.36l1.79,2.99h.02v-2.36l-.48-.09v-.54h1.84Z"/><use x="23.43" xlink:href="#K"/><use x="36.07" xlink:href="#I"/><path d="m244.21,19.61h-.67l-.12-.61c-.08-.05-.19-.09-.34-.13s-.31-.05-.47-.05c-.24,0-.43.05-.57.15-.13.1-.2.24-.2.4,0,.15.07.27.21.37s.38.2.72.31c.49.14.86.32,1.11.54.25.22.38.52.38.88s-.15.68-.45.9c-.3.22-.7.33-1.19.33-.35,0-.67-.06-.95-.17-.28-.11-.52-.27-.71-.46v-.93h.69l.09.63c.09.07.21.13.36.18.15.05.32.07.51.07.24,0,.43-.05.56-.15.13-.1.19-.23.19-.4s-.06-.31-.18-.41-.33-.2-.64-.29c-.53-.15-.92-.33-1.19-.54-.27-.21-.4-.5-.4-.86s.15-.65.46-.88c.3-.23.69-.35,1.15-.35.34,0,.65.05.93.16.28.1.52.24.71.41v.91Z"/><use x="49.69" xlink:href="#H"/><use x="45.8" xlink:href="#J"/><path d="M254.98 18.73v-.54h1.84v.54l-.47.09V22l.47.09v.53h-1.84v-.53l.48-.09v-3.18l-.48-.09z"/><use x="64.66" xlink:href="#G"/><path d="M188.15 29.84l.32-.05 1.35-3.86h.91l1.34 3.86.32.05v.53h-1.51v-.53l.31-.05-.2-.61h-1.44l-.2.61.31.05v.53h-1.51v-.53zm1.61-1.32h1.02l-.5-1.56h-.02l-.5 1.56zm5.15-2.58c.51 0 .91.13 1.2.39s.44.6.44 1.03-.15.77-.44 1.02c-.29.26-.69.39-1.2.39h-.75v.98l.48.09v.53h-1.84v-.53l.47-.09v-3.18l-.47-.09v-.54h2.11zm-.75 2.14h.75c.25 0 .43-.07.56-.2.13-.14.19-.31.19-.52a.75.75 0 0 0-.19-.53c-.13-.14-.31-.21-.56-.21h-.75v1.46zm2.8 2.3v-.53l.47-.09v-3.18l-.47-.09v-.54h1.84v.54l-.48.09v3.13h1.25l.04-.56h.68v1.24h-3.34z"/><use xlink:href="#M"/><use xlink:href="#N"/><path d="m207.98,29.84l.47-.09v-3.18l-.47-.09v-.54h1.81v.54l-.45.09v1.19h.39l.85-1.24-.26-.04v-.54h1.76v.54l-.48.08-1.09,1.46,1.23,1.75.44.08v.53h-1.76v-.53l.27-.04-.85-1.28h-.5v1.23l.45.09v.53h-1.81v-.53Z"/><use y="15.49" xlink:href="#E"/><use xlink:href="#O"/><use x="4.93" y="7.75" xlink:href="#L"/><use x="27.6" xlink:href="#M"/><use x="27.6" xlink:href="#N"/><use x="34.84" xlink:href="#M"/><use x="21.11" xlink:href="#O"/><path d="M245.69 25.94v1.18h-.68l-.04-.5h-.82v3.13l.48.09v.53h-1.84v-.53l.48-.09v-3.13h-.81l-.04.5h-.68v-1.18h3.95zm3.28 2.49h-1.5v1.27h1.43l.04-.53h.68v1.21h-3.51v-.53l.47-.09v-3.18l-.47-.09v-.54h3.5v1.22h-.68l-.04-.53h-1.42v1.12h1.5v.68zm3.24-2.49c.5 0 .9.12 1.19.35s.43.55.43.95c0 .22-.06.42-.18.58s-.3.3-.53.4c.26.08.45.21.57.38.11.18.17.4.17.67v.23c0 .1.02.17.06.23a.27.27 0 0 0 .19.1l.11.02v.54h-.46c-.29 0-.49-.08-.61-.23-.12-.16-.18-.36-.18-.61v-.25c0-.21-.06-.38-.17-.51s-.28-.19-.49-.19h-.73v1.17l.48.09v.53h-1.84v-.53l.47-.09v-3.18l-.47-.09v-.54h1.99zm-.63 1.96h.62c.25 0 .43-.05.56-.16s.19-.26.19-.46-.06-.36-.18-.48-.3-.18-.54-.18h-.63v1.27z"/><use x="53.89" xlink:href="#M"/><path d="M260.3 25.94v.54l-.48.09v2.48c0 .43-.14.77-.42 1.02s-.63.38-1.06.38c-.46 0-.83-.11-1.1-.34s-.4-.56-.39-1v-.02h.87c0 .23.06.4.17.51s.26.16.45.16a.55.55 0 0 0 .42-.19c.11-.13.17-.3.17-.52v-2.48l-.48-.09v-.54h1.84z"/><use x="48.45" y="15.49" xlink:href="#E"/><use x="48.45" xlink:href="#O"/><path d="M161.15 39.26h-.35c-4.9-.09-9.48-2.09-12.88-5.62a18.26 18.26 0 0 1-5.14-13.08c.09-4.9 2.09-9.48 5.62-12.88a18.32 18.32 0 0 1 13.08-5.14c4.9.09 9.48 2.09 12.88 5.62a18.26 18.26 0 0 1 5.14 13.08c-.09 4.9-2.09 9.48-5.62 12.88-3.45 3.32-7.96 5.14-12.73 5.14zm-.02-36.03a17.58 17.58 0 0 0-12.25 4.94c-3.4 3.27-5.32 7.67-5.41 12.39s1.67 9.19 4.94 12.59 7.68 5.32 12.39 5.41h.34a17.58 17.58 0 0 0 12.25-4.94c3.4-3.27 5.32-7.67 5.41-12.39s-1.67-9.19-4.94-12.59-7.68-5.32-12.39-5.41h-.34zm4.64 7.94c.13-.71.46-1.16.84-1.16h.02c.17 0 .23.09.41.41.08.15.18.33.32.48.26.28.53.22.63.19.53-.19.62-1.12.63-1.23v-.22c0-.3.02-.85.25-1.05.03-.03.11-.1.35-.08.54.05.59.17.69.41.06.14.13.31.28.47.59.61 1.48-.15 1.77-.41.09-.06.44-.11.63 0 .04.03.16.1.13.4-.04.51-.28.71-.53.92-.2.17-.42.35-.48.67-.07.42.19.67.35.81s.25.23.24.47c-.01.55-.22.86-.61.94l-.46.06c-.33.03-.64.06-.84.33-.19.25-.06.53.07.83.16.35.35.79.15 1.17-.16.3-.41.35-.8.39-.29.03-.69.07-.83.46-.26.7.34.92.86 1.12l.25.09c.49.19 4.41 2.02 6.68 3.09L162 20.45l1.84-1.98v-.15l.08-4.58c.03-.08.09-.27.54-.19l.27.05c.35.07.88.18 1.02-.3.04-.13.03-.29 0-.57v-.15c.01-.12.02-.25.01-.43 0-.3-.02-.71.03-.97zm-5.27 25.54l-3.2-7.41-.03-.21-.04-.31c.02 0 .04 0 .06.01.16.04.37.08.67.1.34.02.6-.07.79-.25.35-.32.36-.85.36-1.21l.12-3.92 1.53-1.67-.28 14.85zm4.47-24.13c0 .07 0 .14.01.2v.1c-.04 0-.09-.02-.12-.02l-.29-.05c-.67-.11-1.18.15-1.38.69-.15.41-.14 3.3-.12 4.69l-1.51 1.62.27-14.65 1.21 2.94 1.92 4.49z"/><path d="M150.41 15.22c0-.19.09-.34.17-.37.11-.05.2-.08.27-.1.34-.12.59-.25.6-.75a.67.67 0 0 0-.19-.49c-.25-.25-.64-.27-1-.26-.82 0-1.15-.19-1.26-.31-.06-.06-.14-.18-.12-.41.04-.46.14-.5.34-.59s.5-.22.64-.64c.17-.51-.15-.88-.38-1.15s-.33-.41-.28-.6c.06-.23.16-.39.31-.47.13-.07.31-.07.47 0 .1.04.28.24.42.39.32.36.72.81 1.27.64.29-.09.45-.26.59-.4.16-.17.24-.26.6-.21.58.07.65.31.71.73l.03.31c.02.35.04.7.31.89.14.1.31.12.49.06.17-.05.31-.14.45-.23.22-.14.42-.26.68-.24.21.01.52.1.74.76.04.11.07.22.09.32.1.36.19.67.5.76.13.04.32.03.53-.16.02-.01.04-.05.07-.09 0-.01.02-.04.03-.06.02-.04.04-.07.07-.12.02-.03.04-.06.05-.1.03-.05.05-.1.08-.15l.07-.13.1-.18.09-.18.1-.2c.04-.07.07-.15.11-.22l.1-.21.13-.27c.03-.07.06-.13.1-.2l.16-.34.08-.17.2-.41c.02-.03.03-.07.05-.1l.24-.51s0-.02.01-.02l1.85-3.91-.28 14.82-2.03-1.86h-.14l-4.07-.13c-.18 0-.56-.01-.66-.12-.05-.05-.05-.17-.05-.24.03-.6-.08-.88-.2-1.14-.01-.07-.05-.16-.1-.24 0-.01 0-.02-.01-.03h-.01a.75.75 0 0 0-.35-.26c-.22-.08-.42 0-.59.06-.28.11-.66.25-1.42 0-.47-.16-.74-.42-.75-.74zm2.65 1.76c.04.13.06.29.04.55-.02.33.07.6.25.79.32.35.85.36 1.21.36l3.92.12 1.77 1.62-14.69-.27 7.51-3.17zm3.33 13.85c-.16.47-.42.74-.74.75-.2.01-.34-.09-.37-.17-.05-.11-.08-.2-.1-.27-.12-.34-.25-.59-.75-.6a.67.67 0 0 0-.49.19c-.25.25-.26.65-.26 1 .01.83-.19 1.15-.31 1.26-.06.06-.18.14-.41.12-.46-.04-.5-.14-.59-.34s-.22-.5-.64-.64c-.51-.17-.88.15-1.15.38s-.41.33-.6.28c-.23-.06-.39-.16-.47-.31-.07-.13-.07-.3 0-.47.04-.1.24-.28.39-.42.36-.32.81-.73.64-1.27-.09-.29-.26-.45-.4-.59-.17-.16-.25-.24-.21-.6.07-.58.31-.65.73-.71l.31-.03c.35-.02.7-.04.89-.31.1-.14.12-.31.06-.49-.05-.17-.14-.31-.23-.45-.14-.22-.26-.41-.24-.68.01-.21.1-.52.76-.74.11-.04.22-.07.32-.09.36-.1.67-.19.76-.5.03-.13.03-.32-.16-.53-.23-.24-3.95-2.01-7.58-3.71l14.83.28-1.86 2.03v.14l-.13 4.07c0 .18-.01.56-.12.66-.05.05-.17.05-.24.05-.24-.01-.41-.05-.55-.08-.25-.06-.56-.13-.84.19-.2.23-.16.54-.1.95l.03.25c.03.31.05.79-.15 1.39zm14.43-5.13c.72.13 1.18.47 1.16.86 0 .17-.09.23-.41.41-.15.08-.33.18-.48.32-.28.26-.22.53-.19.63.19.53 1.12.62 1.23.63h.21c.3 0 .85.02 1.05.25.03.03.1.12.08.35-.05.54-.17.59-.41.69-.14.06-.31.13-.47.28-.61.59.16 1.48.41 1.77.06.09.11.44 0 .63-.03.04-.1.16-.4.13-.51-.05-.71-.28-.92-.53-.16-.2-.35-.42-.67-.48-.41-.07-.67.19-.81.35-.14.15-.22.25-.47.24-.55-.01-.86-.22-.94-.61l-.06-.46c-.03-.33-.06-.64-.33-.84-.25-.19-.53-.06-.83.07-.35.16-.79.35-1.17.15-.3-.16-.35-.41-.39-.8-.03-.29-.07-.69-.46-.83-.7-.25-.92.34-1.12.86l-.09.25c-.19.49-2.02 4.4-3.09 6.68l.28-15 1.96 2.06h.17l4.58.08c.08.03.27.09.19.54-.07.41-.15.95.24 1.15.15.11.34.12.8.11.39 0 .92-.02 1.35.06zm-1.67-1.03c0-.06.02-.13.03-.17.11-.67-.15-1.18-.69-1.38-.41-.14-3.28-.14-4.68-.12l-1.69-1.78 14.57.27-7.54 3.18z"/></g><defs><path id="B" d="M77.97 12.3c0 2.48-1.45 3.57-4.75 3.57-3.01 0-4.53-1.14-4.53-3.44s1.61-3.37 4.55-3.37h2.46V7.97c0-1.32-.87-1.7-2.63-1.7-.89 0-1.67.07-2.34.2-.65.11-.83-.02-.83-.71v-.31c0-.65.18-.85.8-.96.69-.11 1.43-.18 2.23-.18 3.24 0 5.05 1 5.05 3.66v4.33zm-2.28-1.5h-2.46c-1.54 0-2.25.45-2.25 1.58s.85 1.54 2.19 1.54c1.67 0 2.52-.33 2.52-1.74V10.8z"/><path id="C" d="m188.15,14.35l.32-.05,1.35-3.86h.91l1.34,3.86.32.05v.53h-1.51v-.53l.31-.05-.2-.61h-1.44l-.2.61.31.05v.53h-1.51v-.53Zm1.61-1.32h1.02l-.5-1.56h-.02l-.5,1.56Z"/><path id="D" d="m194.91,10.45c.51,0,.91.13,1.2.39s.44.6.44,1.03-.15.77-.44,1.02c-.29.26-.69.39-1.2.39h-.75v.98l.48.09v.53h-1.84v-.53l.47-.09v-3.18l-.47-.09v-.54h2.11Zm-.75,2.14h.75c.25,0,.43-.07.56-.2.13-.14.19-.31.19-.52s-.06-.39-.19-.53-.31-.21-.56-.21h-.75v1.46Z"/><path id="E" d="M216.29 12.7c0 .65-.19 1.19-.56 1.61s-.86.64-1.46.64-1.08-.21-1.45-.64c-.37-.42-.55-.96-.55-1.61v-.07c0-.65.18-1.18.55-1.61s.85-.64 1.45-.64 1.09.21 1.46.64.56.96.56 1.61v.07zm-.89-.07c0-.46-.1-.83-.29-1.12s-.47-.43-.85-.43-.65.14-.84.43-.28.66-.28 1.12v.07c0 .47.09.84.28 1.13s.46.43.84.43.66-.14.85-.43.28-.66.28-1.13v-.07z"/><path id="F" d="m220.14,11.87h-.67l-.12-.61c-.08-.05-.19-.09-.34-.13s-.31-.05-.47-.05c-.24,0-.43.05-.57.15-.13.1-.2.24-.2.4,0,.15.07.27.21.37s.38.2.72.31c.49.14.86.32,1.11.54.25.22.38.52.38.88s-.15.68-.45.9c-.3.22-.7.33-1.19.33-.35,0-.67-.06-.95-.17s-.52-.27-.71-.46v-.93h.69l.09.63c.09.07.21.13.36.18.15.05.32.07.51.07.24,0,.43-.05.56-.15.13-.1.19-.23.19-.4s-.06-.31-.18-.41c-.12-.1-.33-.2-.64-.29-.53-.15-.92-.33-1.19-.54-.27-.21-.4-.5-.4-.86s.15-.65.46-.88.69-.35,1.15-.35c.34,0,.65.05.93.16.28.1.52.24.71.41v.91Z"/><path id="G" d="M195.48 20.68h-1.5v1.27h1.43l.04-.53h.68v1.21h-3.51v-.53l.47-.09v-3.18l-.47-.09v-.54h3.5v1.22h-.68l-.04-.53h-1.42V20h1.5v.69z"/><path id="H" d="m198.83,18.2c.51,0,.91.13,1.2.39s.44.6.44,1.03-.15.77-.44,1.02c-.29.26-.69.39-1.2.39h-.75v.98l.48.09v.53h-1.84v-.53l.47-.09v-3.18l-.47-.09v-.54h2.11Zm-.75,2.14h.75c.25,0,.43-.07.56-.2s.19-.31.19-.52-.06-.39-.19-.53-.31-.21-.56-.21h-.75v1.46Z"/><path id="I" d="m200.12,22.1l.32-.05,1.35-3.86h.91l1.34,3.86.32.05v.53h-1.51v-.53l.31-.05-.2-.61h-1.44l-.2.61.31.05v.53h-1.51v-.53Zm1.61-1.32h1.02l-.5-1.56h-.02l-.5,1.56Z"/><path id="J" d="m206.76,18.2c.5,0,.9.12,1.19.35s.43.55.43.96c0,.22-.06.42-.18.58s-.3.3-.53.4c.26.08.45.21.57.39.11.18.17.4.17.67v.23c0,.1.02.17.06.23s.1.09.19.1l.11.02v.54h-.46c-.29,0-.49-.08-.61-.23-.12-.16-.18-.36-.18-.61v-.25c0-.22-.06-.38-.17-.51s-.28-.19-.49-.19h-.73v1.17l.48.09v.53h-1.84v-.53l.47-.09v-3.18l-.47-.09v-.54h1.99Zm-.63,1.96h.62c.25,0,.43-.05.56-.16.12-.1.19-.26.19-.46s-.06-.36-.18-.48-.3-.18-.54-.18h-.63v1.27Z"/><path id="K" d="M212.94 18.2v1.18h-.68l-.04-.5h-.82v3.13l.48.09v.53h-1.84v-.53l.48-.09v-3.13h-.81l-.04.5h-.68V18.2h3.95z"/><path id="L" d="M221.69 19.35h-.02l-1.19 3.28h-.6l-1.18-3.27h-.02l.09 1.95v.7l.48.09v.53h-1.84v-.53l.47-.09v-3.18l-.47-.09v-.54h1.63l1.13 3.27h.02l1.14-3.27h1.64v.54l-.48.09v3.18l.48.09v.53h-1.84v-.53l.47-.09v-.7l.09-1.96z"/><path id="M" d="m200.74,26.48v-.54h1.84v.54l-.47.09v3.18l.47.09v.53h-1.84v-.53l.48-.09v-3.18l-.48-.09Z"/><path id="N" d="m207.57,25.94v.54l-.48.09v3.81h-.89l-1.79-2.99h-.02v2.36l.48.09v.53h-1.84v-.53l.47-.09v-3.18l-.47-.09v-.54h1.36l1.79,2.99h.02v-2.36l-.48-.09v-.54h1.84Z"/><path id="O" d="m220.14,27.36h-.67l-.12-.61c-.08-.05-.19-.09-.34-.13s-.31-.05-.47-.05c-.24,0-.43.05-.57.15-.13.1-.2.24-.2.4,0,.15.07.27.21.37s.38.2.72.31c.49.14.86.32,1.11.54.25.22.38.52.38.88s-.15.68-.45.9c-.3.22-.7.33-1.19.33-.35,0-.67-.06-.95-.17s-.52-.27-.71-.46v-.93h.69l.09.63c.09.07.21.13.36.18.15.05.32.07.51.07.24,0,.43-.05.56-.15.13-.1.19-.23.19-.4s-.06-.31-.18-.41c-.12-.1-.33-.2-.64-.29-.53-.15-.92-.33-1.19-.54-.27-.21-.4-.5-.4-.86s.15-.65.46-.88.69-.35,1.15-.35c.34,0,.65.05.93.16.28.1.52.24.71.41v.91Z"/></defs></svg>